<svg width="32" height="32" viewBox="0 0 32 32" fill="none" xmlns="http://www.w3.org/2000/svg">
<g clip-path="url(#clip0_1396_332)">
<path fill-rule="evenodd" clip-rule="evenodd" d="M15.182 3.69775L19.2124 8.5772L19.0826 9.56442L20.3899 7.65528L28.4284 17.4222H3.55371L8.36269 9.25695L10.1988 10.4178V10.4816L15.182 3.69775ZM15.182 6.29331L9.16139 14.5122L8.81293 11.7333L6.32546 16.0807H25.0881L20.3899 10.4178L17.8744 13.4044L17.416 8.86569L15.182 6.29331Z" fill="#1AACC0"/>
<path d="M28.4282 18.7021H3.97998L6.04553 20.1244H26.3627L28.4282 18.7021Z" fill="#1AACC0"/>
<path d="M24.5905 21.5466H7.81787L9.59914 22.6844H22.8092L24.5905 21.5466Z" fill="#1AACC0"/>
<path d="M20.7528 24.1067H11.6558L12.9395 24.96H19.469L20.7528 24.1067Z" fill="#1AACC0"/>
</g>
<defs>
<clipPath id="clip0_1396_332">
<rect width="32" height="32" fill="white"/>
</clipPath>
</defs>
</svg>
