<svg width="512" height="513" viewBox="0 0 512 513" fill="none" xmlns="http://www.w3.org/2000/svg">
<path d="M136.573 31.8692L136.57 126.524L91.5594 152.585L91.5348 57.8278L46.5614 83.824L46.5581 343.63L91.5315 317.634L91.5227 204.699L136.561 178.74L136.57 291.675L181.543 265.679L181.546 5.87305L136.573 31.8692Z" stroke="#F8C40F" stroke-width="10" stroke-linecap="round" stroke-linejoin="round"/>
<path d="M91.5315 317.633L46.5581 343.629L329.748 507.129L329.775 455.183L91.5315 317.633Z" stroke="#F8C40F" stroke-width="10" stroke-linecap="round" stroke-linejoin="round"/>
<path d="M419.763 195.369L181.519 57.8191L181.546 5.87292L464.801 169.41L419.763 195.369Z" stroke="#F8C40F" stroke-width="10" stroke-linecap="round" stroke-linejoin="round"/>
<path d="M419.764 195.369L419.796 353.264L374.791 221.365L329.753 247.324L329.75 507.13L374.788 481.171L374.812 321.23L419.761 455.175L464.799 429.216L464.803 169.411L419.764 195.369Z" stroke="#F8C40F" stroke-width="10" stroke-linecap="round" stroke-linejoin="round"/>
<path d="M136.57 291.675L181.543 265.678L329.763 351.253L329.802 403.237L136.57 291.675Z" stroke="#F8C40F" stroke-width="10" stroke-linecap="round" stroke-linejoin="round"/>
<path d="M374.789 221.365L329.751 247.324L181.531 161.749L181.557 109.802L374.789 221.365Z" stroke="#F8C40F" stroke-width="10" stroke-linecap="round" stroke-linejoin="round"/>
<path d="M329.775 455.183L329.802 403.237L136.57 291.675L136.561 178.74L91.5229 204.699L91.5317 317.633L329.775 455.183Z" stroke="#F8C40F" stroke-width="10" stroke-linecap="round" stroke-linejoin="round"/>
<path d="M181.542 265.679L181.531 161.749L329.751 247.324L329.763 351.254L181.542 265.679Z" stroke="#F8C40F" stroke-width="10" stroke-linecap="round" stroke-linejoin="round"/>
<path d="M91.5366 57.8262L136.548 83.8137L136.572 126.522L91.5612 152.584L91.5366 57.8262Z" stroke="#F8C40F" stroke-width="10" stroke-linecap="round" stroke-linejoin="round"/>
<path d="M419.761 455.175L374.812 321.23L374.75 429.188L419.761 455.175Z" stroke="#F8C40F" stroke-width="10" stroke-linecap="round" stroke-linejoin="round"/>
</svg>
